# xmcd
#
# Track frame offsets: 
#        150
#        13345
#        36603
#        65475
#        84049
#        119483
#        145829
#        163534
#        191578
#        218320
#        245728
#        283261
#        308116
#        329036
#
# Disc length: 4432 seconds
#
# Revision: 3
# Processed by: cddbd v1.5.2PL0 Copyright (c) Steve Scherf et al.
# Submitted via: ExactAudioCopyFreeDBPlugin 1.0
#
DISCID=d2114e0e
DTITLE=Marvin Gaye - Here, My Dear_2016
DYEAR=1978
DGENRE=R&B
TTITLE0=Here, My Dear
TTITLE1=I Met a Little Girl
TTITLE2=When Did U Stop Loving Me
TTITLE3=Anger
TTITLE4=Is That Enough
TTITLE5=Everybody Needs Love
TTITLE6=Time To Get It Together
TTITLE7=Sparrow
TTITLE8=Anna's Song
TTITLE9=When Did U Stop Lovin Me_Instr
TTITLE10=A Funky Space Reincarnation
TTITLE11=U Can Leave but it's Gonna Cost
TTITLE12=Falling In Love Again
TTITLE13=When Did U Stop Luvin Me_Repr
EXTD=
EXTT0=
EXTT1=
EXTT2=
EXTT3=
EXTT4=
EXTT5=
EXTT6=
EXTT7=
EXTT8=
EXTT9=
EXTT10=
EXTT11=
EXTT12=
EXTT13=
PLAYORDER=
